<?xml version="1.0" encoding="UTF-8" standalone="no"?>
<!-- Created with Inkscape (http://www.inkscape.org/) -->

<svg
   xmlns:dc="http://purl.org/dc/elements/1.1/"
   xmlns:cc="http://creativecommons.org/ns#"
   xmlns:rdf="http://www.w3.org/1999/02/22-rdf-syntax-ns#"
   xmlns:svg="http://www.w3.org/2000/svg"
   xmlns="http://www.w3.org/2000/svg"
   xmlns:sodipodi="http://sodipodi.sourceforge.net/DTD/sodipodi-0.dtd"
   xmlns:inkscape="http://www.inkscape.org/namespaces/inkscape"
   width="75.259254mm"
   height="75.259254mm"
   viewBox="0 0 67.733331 67.733327"
   version="1.1"
   id="svg8"
   inkscape:version="0.92.4 (5da689c313, 2019-01-14)"
   sodipodi:docname="logo.svg">
  <defs
     id="defs2" />
  <sodipodi:namedview
     id="base"
     pagecolor="#ffffff"
     bordercolor="#666666"
     borderopacity="1.0"
     inkscape:pageopacity="0.0"
     inkscape:pageshadow="2"
     inkscape:zoom="2"
     inkscape:cx="215.40148"
     inkscape:cy="166.7052"
     inkscape:document-units="mm"
     inkscape:current-layer="layer1"
     showgrid="false"
     inkscape:window-width="1920"
     inkscape:window-height="986"
     inkscape:window-x="-11"
     inkscape:window-y="1609"
     inkscape:window-maximized="1"
     inkscape:snap-global="false"
     scale-x="0.9"
     fit-margin-top="0"
     fit-margin-left="0"
     fit-margin-right="0"
     fit-margin-bottom="-0.6" />
  <metadata
     id="metadata5">
    <rdf:RDF>
      <cc:Work
         rdf:about="">
        <dc:format>image/svg+xml</dc:format>
        <dc:type
           rdf:resource="http://purl.org/dc/dcmitype/StillImage" />
        <dc:title></dc:title>
      </cc:Work>
    </rdf:RDF>
  </metadata>
  <g
     inkscape:label="Layer 1"
     inkscape:groupmode="layer"
     id="layer1"
     transform="translate(-16.536465,-13.49896)">
    <rect
       style="fill:#ffffff;stroke-width:0.26458332"
       id="rect3726"
       width="38.55357"
       height="68.035713"
       x="89.958328"
       y="158.66071" />
    <path
       style="fill:#000000;stroke-width:0.26458332"
       d="m 24.739511,60.528645 9.53e-4,-13.824478 12.669309,-10.583333 c 6.968131,-5.820833 12.815136,-10.583333 12.993357,-10.583333 0.178221,0 6.025226,4.7625 12.993346,10.583333 l 12.66931,10.583333 0.0011,13.824478 0.0011,13.824479 H 65.749153 55.430404 v -7.14375 -7.14375 H 50.40332 45.376237 v 7.14375 7.14375 H 35.057488 24.738738 l 9.53e-4,-13.824479 z M 18.896236,48.22532 c -0.357094,-0.400071 -0.911793,-1.029251 -1.232665,-1.398178 l -0.583402,-0.670774 5.280884,-4.4886 5.280883,-4.488601 0.0035,-6.283854 0.0035,-6.283854 h 4.101042 4.101041 v 2.645834 c 0,1.455208 0.06683,2.645833 0.148507,2.645833 0.211834,0 12.800995,-10.744818 13.675972,-11.672408 l 0.727604,-0.771357 0.727604,0.7743 c 0.400182,0.425865 7.752291,6.75369 16.33802,14.061833 8.585729,7.308142 15.755312,13.421047 15.932409,13.584234 0.247877,0.228404 0.03472,0.615788 -0.926042,1.682956 L 81.227087,48.948942 65.904461,35.842328 C 57.477016,28.633691 50.433192,22.792755 50.251518,22.86247 49.992954,22.96169 22.383485,46.395115 20.091502,48.460659 19.555754,48.943478 19.533301,48.939057 18.896236,48.22532 Z"
       id="path3743"
       inkscape:connector-curvature="0" />
  </g>
</svg>
